<?xml version="1.0" encoding="utf-8"?>
<!-- Generator: Adobe Illustrator 19.2.1, SVG Export Plug-In . SVG Version: 6.00 Build 0)  -->
<svg version="1.1" id="Layer_1" xmlns="http://www.w3.org/2000/svg" xmlns:xlink="http://www.w3.org/1999/xlink" x="0px" y="0px"
	 viewBox="0 0 613.8 182.8" style="enable-background:new 0 0 613.8 182.8;" xml:space="preserve">
<style type="text/css">
	.st0{opacity:0.9;}
	.st1{fill:#FFFFFF;}
	.st2{enable-background:new    ;}
</style>
<g class="st0">
	<path class="st1" d="M182.7,91.4c0-24-9.3-45.9-24.6-62.3l8.3-8.3l-4.5-4.5l-8.3,8.3C137.4,9.4,115.4,0,91.4,0
		c-24.1,0-46,9.4-62.3,24.6l-8.2-8.2l-4.5,4.5l8.2,8.2C9.3,45.4,0,67.3,0,91.4s9.4,46,24.6,62.3l-8.1,8.1l4.5,4.5l8.2-8.1
		c16.3,15.2,38.2,24.6,62.3,24.6s46-9.3,62.3-24.6l8.3,8.3l4.5-4.5l-8.3-8.3C173.4,137.4,182.7,115.4,182.7,91.4z M146.2,141.7
		l-0.9,0.9l-0.9,0.9l-0.9,0.9l-0.9,0.9l-0.9,0.9l7.5,7.5c-15.2,14.1-35.5,22.8-57.9,22.8c-22.3,0-42.6-8.6-57.8-22.7l7.5-7.5
		l-0.9-0.9l-0.9-0.9l-0.9-0.9l-0.9-0.9l-0.9-0.9l-7.5,7.5C14.9,134.1,6.3,113.7,6.3,91.4C6.3,69,14.9,48.7,29,33.5l7.6,7.6l0.9-0.9
		l0.9-0.9l0.9-0.9l0.9-0.9l0.9-0.9L33.5,29C48.7,14.9,69,6.3,91.4,6.3c22.3,0,42.7,8.7,57.9,22.8l-7.3,7.3l0.9,0.9l0.9,0.9l0.9,0.9
		l0.9,0.9l0.9,0.9l7.3-7.3c14.1,15.2,22.7,35.5,22.7,57.8s-8.7,42.7-22.8,57.9L146.2,141.7z"/>
	<path class="st1" d="M160.9,94.7L160.9,94.7v-5.9l0,0L133,86.2h-0.7h-37v-4.6c1.2-3.2,2-7.9,2-13.2c0-9.8-2.7-17.7-6-17.7
		s-6,7.9-6,17.7c0,5.2,0.8,9.9,2,13.1v4.6H50.7H50l-27.9,2.6l0,0v5.9l0,0l0,0L50,97.4l0,0l0.7,0.1l0,0l0,0h36.6v20.1H71.8
		c-1.9,0-3.4,1.7-3.4,3.9c0,2.1,1.5,3.9,3.4,3.9h16.4c0,0.1,0,0.2,0,0.2v0.6c0,0.8,0.3,1.6,0.9,2.2H79c-0.3,0-0.5,0.2-0.5,0.5
		s0.2,0.5,0.5,0.5h10.5v1.8c0,0.9,0.6,1.7,1.5,1.9v1.6c0,0.3,0.2,0.5,0.5,0.5s0.5-0.2,0.5-0.5V133c0.8-0.2,1.5-1,1.5-1.9v-1.8H104
		c0.3,0,0.5-0.2,0.5-0.5s-0.2-0.5-0.5-0.5H93.8c0.5-0.6,0.9-1.3,0.9-2.2v-0.6c0-0.1,0-0.1,0-0.2h16.2c1.9,0,3.4-1.7,3.4-3.9
		c0-2.1-1.5-3.9-3.4-3.9H95.4v-20h37l0,0L160.9,94.7L160.9,94.7z"/>
</g>
<g class="st2">
	<path class="st1" d="M223.1,81c-1.6,0-2.9-0.6-4.1-1.7c-1.1-1.1-1.7-2.5-1.7-4V62.2c0-1.6,0.6-2.9,1.7-4.1s2.5-1.7,4.1-1.7
		c1.6,0,2.9,0.6,4.1,1.7c1.1,1.1,1.7,2.5,1.7,4.1v2.7H225v-2.8c0-0.6-0.2-1.1-0.6-1.5c-0.4-0.4-0.9-0.6-1.5-0.6s-1.1,0.2-1.5,0.6
		c-0.4,0.4-0.6,0.9-0.6,1.5v13.1c0,0.6,0.2,1.1,0.6,1.5c0.4,0.4,0.9,0.6,1.5,0.6s1.1-0.2,1.5-0.6c0.4-0.4,0.6-0.9,0.6-1.5v-3.3h3.7
		v3.3c0,1.6-0.6,2.9-1.7,4.1S224.6,81,223.1,81z"/>
	<path class="st1" d="M239.7,80.7v-24H250v3.6h-6.7v6.5h4.9v3.6h-4.9V77h6.7v3.6H239.7z"/>
	<path class="st1" d="M264.5,56.7l4.8,16.1V56.7h3.6v24h-3.9l-5-15.3v15.3h-3.6v-24H264.5z"/>
	<path class="st1" d="M287.7,60.4h-3.8v-3.6h11.3v3.6h-3.8v20.3h-3.6V60.4z"/>
	<path class="st1" d="M306,80.7v-24h10.3v3.6h-6.7v6.5h4.9v3.6h-4.9V77h6.7v3.6H306z"/>
	<path class="st1" d="M332.4,56.7c2,0,3.5,0.6,4.4,1.7c0.8,1,1.2,2.3,1.2,4.1v3.5c0,1.7-0.6,3.1-1.9,4.3l2.7,10.5H335l-2.2-9
		c-0.1,0-0.2,0-0.3,0h-2.1v9h-3.6V56.7H332.4z M334.6,62.5c0-1.4-0.7-2.1-2.1-2.1h-2.2v7.7h2.2c0.6,0,1.1-0.2,1.5-0.6
		s0.6-0.9,0.6-1.5V62.5z"/>
	<path class="st1" d="M363.4,80.7h-3.6v-24h10.3v3.6h-6.7v6.5h4.9v3.6h-4.9V80.7z"/>
	<path class="st1" d="M386.3,56.4c1.6,0,2.9,0.6,4.1,1.7c1.1,1.1,1.7,2.5,1.7,4.1v13.1c0,1.6-0.6,2.9-1.7,4.1
		c-1.1,1.1-2.5,1.7-4.1,1.7c-1.6,0-2.9-0.6-4.1-1.7s-1.7-2.5-1.7-4.1V62.2c0-1.6,0.6-2.9,1.7-4.1C383.4,57,384.7,56.4,386.3,56.4z
		 M388.2,62.1c0-0.6-0.2-1.1-0.6-1.5s-0.9-0.6-1.5-0.6s-1.1,0.2-1.5,0.6c-0.4,0.4-0.6,0.9-0.6,1.5v13.1c0,0.6,0.2,1.1,0.6,1.5
		c0.4,0.4,0.9,0.6,1.5,0.6s1.1-0.2,1.5-0.6s0.6-0.9,0.6-1.5V62.1z"/>
	<path class="st1" d="M408.9,56.7c2,0,3.5,0.6,4.4,1.7c0.8,1,1.2,2.3,1.2,4.1v3.5c0,1.7-0.6,3.1-1.9,4.3l2.7,10.5h-3.9l-2.2-9
		c-0.1,0-0.2,0-0.3,0h-2.1v9h-3.6V56.7H408.9z M411,62.5c0-1.4-0.7-2.1-2.1-2.1h-2.2v7.7h2.2c0.6,0,1.1-0.2,1.5-0.6s0.6-0.9,0.6-1.5
		V62.5z"/>
	<path class="st1" d="M440.1,60.4h-3.8v-3.6h11.3v3.6h-3.8v20.3h-3.6V60.4z"/>
	<path class="st1" d="M462,70.5v10.1h-3.6V56.7h3.6v10.2h4.4V56.7h3.6v23.9h-3.6V70.5H462z"/>
	<path class="st1" d="M481.2,80.7v-24h10.3v3.6h-6.7v6.5h4.9v3.6h-4.9V77h6.7v3.6H481.2z"/>
	<path class="st1" d="M524.4,74.7c0,1.7-0.4,3.1-1.3,4.3c-0.6,0.8-1.4,1.4-2.5,1.7c-0.6,0.2-1.2,0.3-2,0.3c-1.4,0-2.6-0.3-3.5-1.1
		c-0.8-0.6-1.4-1.4-1.8-2.3c-0.5-1-0.7-2.1-0.8-3.4l3.4-0.2c0.2,1.4,0.5,2.4,1.1,3c0.4,0.5,0.9,0.7,1.5,0.7c0.8,0,1.4-0.4,1.9-1.2
		c0.2-0.4,0.4-0.9,0.4-1.6c0-1-0.5-2-1.4-3c-0.7-0.7-1.8-1.7-3.2-3c-1.2-1.2-2-2.2-2.5-3.1c-0.5-1-0.8-2.2-0.8-3.4
		c0-2.2,0.7-3.8,2.2-5c0.9-0.7,2-1,3.4-1c1.3,0,2.4,0.3,3.3,0.9c0.7,0.4,1.3,1.1,1.7,1.9c0.4,0.8,0.7,1.7,0.8,2.8l-3.5,0.6
		c-0.1-1-0.4-1.7-0.8-2.3c-0.3-0.4-0.8-0.6-1.4-0.6c-0.7,0-1.2,0.3-1.5,0.9c-0.3,0.5-0.4,1.1-0.4,1.8c0,1.1,0.5,2.2,1.4,3.3
		c0.4,0.4,0.9,0.9,1.6,1.5c0.8,0.7,1.4,1.2,1.7,1.5c0.9,0.9,1.6,1.8,2.1,2.6c0.2,0.4,0.4,0.8,0.6,1.1
		C524.2,73.3,524.4,74,524.4,74.7z"/>
	<path class="st1" d="M538.7,60.4h-3.8v-3.6h11.3v3.6h-3.8v20.3h-3.6V60.4z"/>
	<path class="st1" d="M562.7,80.9c-1.6,0-2.9-0.6-4.1-1.7s-1.7-2.5-1.7-4V56.7h3.5v18.5c0,0.6,0.2,1.1,0.6,1.5
		c0.4,0.4,0.9,0.6,1.5,0.6s1.1-0.2,1.5-0.6s0.6-0.9,0.6-1.5V56.7h3.8v18.5c0,1.6-0.6,3-1.7,4.1C565.7,80.4,564.3,80.9,562.7,80.9z"
		/>
	<path class="st1" d="M591,74.9c0,1.6-0.6,2.9-1.7,4.1c-1.1,1.1-2.4,1.7-4,1.7h-5.7v-24h5.7c1.6,0,2.9,0.6,4,1.7s1.7,2.5,1.7,4V74.9
		z M583.3,77.1h2.2c0.6,0,1.1-0.2,1.5-0.6c0.4-0.4,0.6-0.9,0.6-1.5V62.5c0-0.6-0.2-1.1-0.6-1.5c-0.4-0.4-0.9-0.6-1.4-0.6h-2.2V77.1z
		"/>
	<path class="st1" d="M605.3,70.6l-4.8-13.9h4l2.7,8.6l2.7-8.6h4l-4.9,13.9v10h-3.6V70.6z"/>
</g>
<g class="st2">
	<path class="st1" d="M237.2,103.4c1.6,0,2.9,0.6,4.1,1.7c1.1,1.1,1.7,2.5,1.7,4.1v13.1c0,1.6-0.6,2.9-1.7,4.1
		c-1.1,1.1-2.5,1.7-4.1,1.7c-1.6,0-2.9-0.6-4.1-1.7s-1.7-2.5-1.7-4.1v-13.1c0-1.6,0.6-2.9,1.7-4.1
		C234.3,104,235.7,103.4,237.2,103.4z M239.2,109.1c0-0.6-0.2-1.1-0.6-1.5s-0.9-0.6-1.5-0.6s-1.1,0.2-1.5,0.6
		c-0.4,0.4-0.6,0.9-0.6,1.5v13.1c0,0.6,0.2,1.1,0.6,1.5c0.4,0.4,0.9,0.6,1.5,0.6s1.1-0.2,1.5-0.6s0.6-0.9,0.6-1.5V109.1z"/>
	<path class="st1" d="M257.7,127.7h-3.6v-24h10.3v3.6h-6.7v6.5h4.9v3.6h-4.9V127.7z"/>
	<path class="st1" d="M289.2,107.4h-3.8v-3.6h11.3v3.6h-3.8v20.3h-3.6V107.4z"/>
	<path class="st1" d="M308.9,122.2l-0.9,5.5h-3.8l4.1-23.9h5l4,23.9h-3.8l-0.8-5.5H308.9z M310.8,109.2l-1.3,9.4h2.7L310.8,109.2z"
		/>
	<path class="st1" d="M334,103.7c2,0,3.5,0.6,4.4,1.7c0.8,1,1.2,2.3,1.2,4.1v3.5c0,1.7-0.6,3.1-1.9,4.3l2.7,10.5h-3.9l-2.2-9
		c-0.1,0-0.2,0-0.3,0h-2.1v9h-3.6v-23.9H334z M336.2,109.5c0-1.4-0.7-2.1-2.1-2.1h-2.2v7.7h2.2c0.6,0,1.1-0.2,1.5-0.6
		s0.6-0.9,0.6-1.5V109.5z"/>
	<path class="st1" d="M356.6,128c-1.6,0-2.9-0.6-4.1-1.7c-1.1-1.1-1.7-2.5-1.7-4v-13.1c0-1.6,0.6-2.9,1.7-4.1s2.5-1.7,4.1-1.7
		c1.6,0,2.9,0.6,4.1,1.7s1.7,2.5,1.7,4.1v2.7h-3.7v-2.8c0-0.6-0.2-1.1-0.6-1.5c-0.4-0.4-0.9-0.6-1.5-0.6s-1.1,0.2-1.5,0.6
		c-0.4,0.4-0.6,0.9-0.6,1.5v13.1c0,0.6,0.2,1.1,0.6,1.5c0.4,0.4,0.9,0.6,1.5,0.6s1.1-0.2,1.5-0.6c0.4-0.4,0.6-0.9,0.6-1.5v-4.7h-2
		v-3.6h5.8v8.4c0,1.6-0.6,2.9-1.7,4.1S358.2,128,356.6,128z"/>
	<path class="st1" d="M373.5,127.7v-24h10.3v3.6h-6.7v6.5h4.9v3.6h-4.9v6.5h6.7v3.6H373.5z"/>
	<path class="st1" d="M398.1,107.4h-3.8v-3.6h11.3v3.6h-3.8v20.3h-3.6V107.4z"/>
	<path class="st1" d="M416.4,127.7v-24h10.3v3.6H420v6.5h4.9v3.6H420v6.5h6.7v3.6H416.4z"/>
	<path class="st1" d="M448.5,121.9c0,1.6-0.6,2.9-1.7,4.1c-1.1,1.1-2.4,1.7-4,1.7h-5.7v-24h5.7c1.6,0,2.9,0.6,4,1.7s1.7,2.5,1.7,4
		V121.9z M440.8,124.1h2.2c0.6,0,1.1-0.2,1.5-0.6c0.4-0.4,0.6-0.9,0.6-1.5v-12.5c0-0.6-0.2-1.1-0.6-1.5c-0.4-0.4-0.9-0.6-1.4-0.6
		h-2.2V124.1z"/>
	<path class="st1" d="M473.1,120.1v7.6h-3.6v-24h3.6v8.5l4.4-8.5h3.9l-4.9,9.8l5.8,14.2h-4.2l-3.8-9.7L473.1,120.1z"/>
	<path class="st1" d="M496.7,127.7h-3.6v-23.9h3.6V127.7z"/>
	<path class="st1" d="M517.8,127.7h-9.8v-23.9h3.6v20.3h6.2V127.7z"/>
	<path class="st1" d="M538.1,127.7h-9.8v-23.9h3.6v20.3h6.2V127.7z"/>
	<path class="st1" d="M552.2,127.7h-3.6v-23.9h3.6V127.7z"/>
	<path class="st1" d="M567.4,103.7l4.8,16.1v-16.1h3.6v24H572l-5-15.3v15.3h-3.6v-24H567.4z"/>
	<path class="st1" d="M592.7,128c-1.6,0-2.9-0.6-4.1-1.7c-1.1-1.1-1.7-2.5-1.7-4v-13.1c0-1.6,0.6-2.9,1.7-4.1s2.5-1.7,4.1-1.7
		c1.6,0,2.9,0.6,4.1,1.7c1.1,1.1,1.7,2.5,1.7,4.1v2.7h-3.7v-2.8c0-0.6-0.2-1.1-0.6-1.5c-0.4-0.4-0.9-0.6-1.5-0.6s-1.1,0.2-1.5,0.6
		c-0.4,0.4-0.6,0.9-0.6,1.5v13.1c0,0.6,0.2,1.1,0.6,1.5c0.4,0.4,0.9,0.6,1.5,0.6s1.1-0.2,1.5-0.6c0.4-0.4,0.6-0.9,0.6-1.5v-4.7h-2
		v-3.6h5.8v8.4c0,1.6-0.6,2.9-1.7,4.1S594.3,128,592.7,128z"/>
</g>
</svg>
