<?xml version="1.0" encoding="utf-8"?>
<!-- Generator: Adobe Illustrator 19.2.1, SVG Export Plug-In . SVG Version: 6.00 Build 0)  -->
<svg version="1.1" id="Layer_1" xmlns="http://www.w3.org/2000/svg" xmlns:xlink="http://www.w3.org/1999/xlink" x="0px" y="0px"
	 viewBox="0 0 182.7 182.7" style="enable-background:new 0 0 182.7 182.7;" xml:space="preserve">
<style type="text/css">
	.st0{opacity:0.9;}
	.st1{fill:#FFFFFF;}
</style>
<g class="st0">
	<path class="st1" d="M182.7,91.4c0-24-9.3-45.9-24.6-62.3l8.3-8.3l-4.5-4.5l-8.3,8.3C137.4,9.4,115.4,0,91.4,0
		c-24.1,0-46,9.4-62.3,24.6l-8.2-8.2l-4.5,4.5l8.2,8.2C9.3,45.4,0,67.3,0,91.4c0,24.1,9.4,46,24.6,62.3l-8.1,8.1l4.5,4.5l8.2-8.1
		c16.3,15.2,38.2,24.6,62.3,24.6c24.1,0,46-9.3,62.3-24.6l8.3,8.3l4.5-4.5l-8.3-8.3C173.4,137.4,182.7,115.4,182.7,91.4z
		 M146.2,141.7l-0.9,0.9l-0.9,0.9l-0.9,0.9l-0.9,0.9l-0.9,0.9l7.5,7.5c-15.2,14.1-35.5,22.8-57.9,22.8c-22.3,0-42.6-8.6-57.8-22.7
		l7.5-7.5l-0.9-0.9l-0.9-0.9l-0.9-0.9l-0.9-0.9l-0.9-0.9l-7.5,7.5C14.9,134.1,6.3,113.7,6.3,91.4C6.3,69,14.9,48.7,29,33.5l7.6,7.6
		l0.9-0.9l0.9-0.9l0.9-0.9l0.9-0.9l0.9-0.9L33.5,29C48.7,14.9,69,6.3,91.4,6.3c22.3,0,42.7,8.7,57.9,22.8l-7.3,7.3l0.9,0.9l0.9,0.9
		l0.9,0.9l0.9,0.9l0.9,0.9l7.3-7.3c14.1,15.2,22.7,35.5,22.7,57.8c0,22.3-8.7,42.7-22.8,57.9L146.2,141.7z"/>
	<path class="st1" d="M160.9,94.7L160.9,94.7l0-5.9h0l-27.9-2.6l-0.7,0h-37v-4.6c1.2-3.2,2-7.9,2-13.2c0-9.8-2.7-17.7-6-17.7
		c-3.3,0-6,7.9-6,17.7c0,5.2,0.8,9.9,2,13.1v4.6H50.7l-0.7,0l-27.9,2.6h0v5.9h0l0,0L50,97.4l0,0l0.7,0.1v0l0,0h36.6v20.1H71.8
		c-1.9,0-3.4,1.7-3.4,3.9c0,2.1,1.5,3.9,3.4,3.9h16.4c0,0.1,0,0.2,0,0.2v0.6c0,0.8,0.3,1.6,0.9,2.2H79c-0.3,0-0.5,0.2-0.5,0.5
		c0,0.3,0.2,0.5,0.5,0.5h10.5v1.8c0,0.9,0.6,1.7,1.5,1.9v1.6c0,0.3,0.2,0.5,0.5,0.5c0.3,0,0.5-0.2,0.5-0.5V133
		c0.8-0.2,1.5-1,1.5-1.9v-1.8H104c0.3,0,0.5-0.2,0.5-0.5c0-0.3-0.2-0.5-0.5-0.5H93.8c0.5-0.6,0.9-1.3,0.9-2.2v-0.6
		c0-0.1,0-0.1,0-0.2h16.2c1.9,0,3.4-1.7,3.4-3.9c0-2.1-1.5-3.9-3.4-3.9H95.4V97.5h37l0,0L160.9,94.7L160.9,94.7z"/>
</g>
</svg>
