<?xml version="1.0" encoding="utf-8"?>
<!-- Generator: Adobe Illustrator 20.1.0, SVG Export Plug-In . SVG Version: 6.00 Build 0)  -->
<svg version="1.1" id="Layer_1" xmlns="http://www.w3.org/2000/svg" xmlns:xlink="http://www.w3.org/1999/xlink" x="0px" y="0px"
	 viewBox="0 0 781.8 285.2" style="enable-background:new 0 0 781.8 285.2;" xml:space="preserve">
<style type="text/css">
	.st0{fill:#FFFFFF;}
</style>
<g>
	<path class="st0" d="M280.8,142.6c0-37.5-14.3-71.7-37.7-97.2l12.8-12.9l-6.9-7l-12.8,12.9C211.1,14.6,177.4,0,140.4,0
		c-37,0-70.7,14.6-95.8,38.4L32.1,25.7l-6.9,7l12.6,12.8C14.4,70.9,0,105.1,0,142.6c0,37.6,14.4,71.8,37.9,97.3l-12.5,12.7l6.9,7
		l12.5-12.7c25.1,23.8,58.7,38.4,95.7,38.4c37,0,70.6-14.6,95.7-38.4l12.7,12.9l6.9-7L243,239.9
		C266.4,214.4,280.8,180.2,280.8,142.6z M224.6,221.2l-1.4,1.4l-1.4,1.4l-1.4,1.4l-1.3,1.4l-1.4,1.4l11.6,11.7
		c-23.3,22-54.6,35.5-88.9,35.5c-34.3,0-65.5-13.5-88.9-35.5L63,228.2l-1.4-1.4l-1.4-1.4l-1.4-1.4l-1.4-1.4l-1.4-1.4L44.7,233
		c-21.7-23.7-35-55.5-35-90.4c0-34.8,13.3-66.6,35-90.3l11.7,11.8l1.4-1.4l1.4-1.4l1.4-1.4l1.4-1.4l1.4-1.4L51.4,45.3
		c23.4-22,54.6-35.6,89-35.6c34.3,0,65.6,13.5,89,35.6l-11.2,11.4l1.4,1.4l1.4,1.4l1.4,1.4l1.3,1.4l1.4,1.4l11.2-11.4
		c21.7,23.7,34.9,55.4,34.9,90.3c0,34.9-13.3,66.6-35,90.3L224.6,221.2z"/>
	<path class="st0" d="M247.2,147.9L247.2,147.9l0-9.2h0l-42.8-4l-1-0.1h-56.8v-7.2c1.9-5.1,3.1-12.4,3.1-20.6
		c0-15.3-4.1-27.7-9.3-27.7c-5.1,0-9.3,12.4-9.3,27.7c0,8.1,1.2,15.4,3,20.5v7.3H77.9l-1.1,0.1l-42.8,4h0v9.2h0l0,0l42.8,4.2l0,0
		l1.1,0.1v0l0,0h56.3v31.4h-23.8c-2.9,0-5.2,2.7-5.2,6.1c0,3.4,2.3,6.1,5.2,6.1h25.3c0,0.1,0,0.2,0,0.4v1c0,1.3,0.5,2.5,1.3,3.4
		h-15.6c-0.4,0-0.7,0.3-0.7,0.7c0,0.4,0.3,0.7,0.7,0.7h16.2v2.8c0,1.4,1,2.6,2.3,2.9v2.5c0,0.4,0.3,0.7,0.7,0.7
		c0.4,0,0.7-0.3,0.7-0.7v-2.5c1.3-0.3,2.3-1.5,2.3-2.9v-2.8h16.3c0.4,0,0.7-0.3,0.7-0.7c0-0.4-0.3-0.7-0.7-0.7h-15.8
		c0.8-0.9,1.3-2.1,1.3-3.4v-1c0-0.1,0-0.2,0-0.4h24.9c2.9,0,5.2-2.7,5.2-6.1c0-3.3-2.3-6.1-5.2-6.1h-23.7v-31.4h56.8l0,0
		L247.2,147.9L247.2,147.9z"/>
</g>
<g>
	<path class="st0" d="M381.9,113.3V96.8h-37.5v75.3h37.5v-16.5h30.9v30.3c0,4-1.5,7.3-4.5,9.9c-3,2.6-6.7,3.9-11.1,3.9h-68.1
		c-4.4,0-8.1-1.3-10.9-3.9c-2.9-2.6-4.4-5.9-4.4-9.9V82.7c0-4,1.4-7.4,4.4-10c2.9-2.7,6.5-4.1,10.9-4.1h68.1c4.4,0,8.1,1.4,11.1,4.1
		c3,2.7,4.5,6.1,4.5,10v30.6H381.9z"/>
	<path class="st0" d="M512.7,199.7h-77.1v-27.9h61.5v-24.6h-45.9c-4.2,0-7.9-1.4-11-4c-3.1-2.7-4.6-6-4.6-10.1V81.8
		c0-3.8,1.5-7.1,4.6-9.8c3.1-2.7,6.8-4.1,11-4.1H528v27.9h-61.2V119h45.9c4.2,0,7.8,1.4,10.8,4.1c3,2.7,4.5,6.1,4.5,10v52.5
		c0,4-1.5,7.4-4.5,10.1C520.5,198.3,516.9,199.7,512.7,199.7z"/>
	<path class="st0" d="M639.3,96.2H609v103.5h-30.9V96.2h-30.3V68.6h91.5V96.2z"/>
	<path class="st0" d="M741,199.7l-26.1-37.5l-26.1,37.5h-26.1V68.6h30.9v63l42-63H780l-44.1,63h0.9l45,68.1H741z"/>
</g>
</svg>
